# xmcd CD database file
#
# Track frame offsets:
#	150
#	21397
#	50217
#	79490
#	111227
#	142140
#	154690
#	169365
#	190340
#
# Disc length: 2933 seconds
#
# Revision: 0
# Processed by: cddbd v1.5.2PL0 Copyright (c) Steve Scherf et al.
# Submitted via: CDex 1.51
#
DISCID=880b7309
DTITLE=Sonora Poncen~a - Thirty Years Vol. 1
DYEAR=1985
DGENRE=Salsa
TTITLE0=Fuego en el 23
TTITLE1=Yambeque
TTITLE2=Date Cuenta
TTITLE3=Boriquen
TTITLE4=Ramona
TTITLE5=Pan~o de Lagrimas
TTITLE6=Snacocho Prieto 
TTITLE7=Hasta Que Se Rompa el Cuero
TTITLE8=Canto al amor
EXTD=YEAR: 1985
EXTT0=
EXTT1=
EXTT2=
EXTT3=
EXTT4=
EXTT5=
EXTT6=
EXTT7=
EXTT8=
PLAYORDER=
